<mxfile host="app.diagrams.net" modified="2022-09-18T08:18:23.080Z" agent="5.0 (Windows NT 10.0; Win64; x64) AppleWebKit/537.36 (KHTML, like Gecko) Chrome/105.0.0.0 Safari/537.36 Edg/105.0.1343.42" etag="IqYuG09b_j-055tSgEF9" version="20.3.2" type="github">
  <diagram id="3uv_5a1CadoxR7LeSZuG" name="第 1 页">
    <mxGraphModel dx="2030" dy="2246" grid="1" gridSize="10" guides="1" tooltips="1" connect="1" arrows="1" fold="1" page="1" pageScale="1" pageWidth="827" pageHeight="1169" math="0" shadow="0">
      <root>
        <mxCell id="0" />
        <mxCell id="1" parent="0" />
        <mxCell id="eCfQ1FWrgluR6rA7im4v-1" value="Object" style="rounded=0;whiteSpace=wrap;html=1;" parent="1" vertex="1">
          <mxGeometry x="450" y="560" width="120" height="60" as="geometry" />
        </mxCell>
        <mxCell id="eCfQ1FWrgluR6rA7im4v-3" style="edgeStyle=orthogonalEdgeStyle;rounded=0;orthogonalLoop=1;jettySize=auto;html=1;" parent="1" source="eCfQ1FWrgluR6rA7im4v-2" target="eCfQ1FWrgluR6rA7im4v-1" edge="1">
          <mxGeometry relative="1" as="geometry" />
        </mxCell>
        <mxCell id="eCfQ1FWrgluR6rA7im4v-2" value="ObjectPtrBase" style="rounded=0;whiteSpace=wrap;html=1;" parent="1" vertex="1">
          <mxGeometry x="450" y="730" width="120" height="60" as="geometry" />
        </mxCell>
        <mxCell id="hXdenJVnxnj7ZPXVM2Uu-8" style="rounded=0;orthogonalLoop=1;jettySize=auto;html=1;" parent="1" source="hXdenJVnxnj7ZPXVM2Uu-3" target="hXdenJVnxnj7ZPXVM2Uu-15" edge="1">
          <mxGeometry relative="1" as="geometry" />
        </mxCell>
        <mxCell id="hXdenJVnxnj7ZPXVM2Uu-3" value="Object" style="rounded=0;whiteSpace=wrap;html=1;" parent="1" vertex="1">
          <mxGeometry x="120" y="130" width="120" height="60" as="geometry" />
        </mxCell>
        <mxCell id="hXdenJVnxnj7ZPXVM2Uu-13" value="allObjects" style="shape=cylinder3;whiteSpace=wrap;html=1;boundedLbl=1;backgroundOutline=1;size=15;" parent="1" vertex="1">
          <mxGeometry x="280" y="-220" width="60" height="80" as="geometry" />
        </mxCell>
        <mxCell id="hXdenJVnxnj7ZPXVM2Uu-16" style="edgeStyle=none;rounded=0;orthogonalLoop=1;jettySize=auto;html=1;" parent="1" source="hXdenJVnxnj7ZPXVM2Uu-15" target="hXdenJVnxnj7ZPXVM2Uu-13" edge="1">
          <mxGeometry relative="1" as="geometry" />
        </mxCell>
        <mxCell id="hXdenJVnxnj7ZPXVM2Uu-15" value="instanceID" style="ellipse;whiteSpace=wrap;html=1;" parent="1" vertex="1">
          <mxGeometry x="160" y="-70" width="120" height="80" as="geometry" />
        </mxCell>
        <mxCell id="hXdenJVnxnj7ZPXVM2Uu-19" style="edgeStyle=none;rounded=0;orthogonalLoop=1;jettySize=auto;html=1;" parent="1" source="hXdenJVnxnj7ZPXVM2Uu-17" target="hXdenJVnxnj7ZPXVM2Uu-18" edge="1">
          <mxGeometry relative="1" as="geometry" />
        </mxCell>
        <mxCell id="hXdenJVnxnj7ZPXVM2Uu-17" value="Object" style="rounded=0;whiteSpace=wrap;html=1;" parent="1" vertex="1">
          <mxGeometry x="500" y="130" width="120" height="60" as="geometry" />
        </mxCell>
        <mxCell id="hXdenJVnxnj7ZPXVM2Uu-20" style="edgeStyle=none;rounded=0;orthogonalLoop=1;jettySize=auto;html=1;" parent="1" source="hXdenJVnxnj7ZPXVM2Uu-18" target="hXdenJVnxnj7ZPXVM2Uu-13" edge="1">
          <mxGeometry relative="1" as="geometry" />
        </mxCell>
        <mxCell id="hXdenJVnxnj7ZPXVM2Uu-18" value="instanceID" style="ellipse;whiteSpace=wrap;html=1;" parent="1" vertex="1">
          <mxGeometry x="380" y="-50" width="120" height="80" as="geometry" />
        </mxCell>
        <mxCell id="7D1d1UClvQg2_21mU1wl-62" style="edgeStyle=none;shape=connector;rounded=0;orthogonalLoop=1;jettySize=auto;html=1;labelBackgroundColor=default;strokeColor=default;fontFamily=Helvetica;fontSize=11;fontColor=#000000;endArrow=classic;" parent="1" source="7D1d1UClvQg2_21mU1wl-2" target="ukPV0_dSm2DLfxHPNTDD-3" edge="1">
          <mxGeometry relative="1" as="geometry" />
        </mxCell>
        <mxCell id="7D1d1UClvQg2_21mU1wl-2" value="Create()&lt;br&gt;运行时创建方式" style="rhombus;whiteSpace=wrap;html=1;" parent="1" vertex="1">
          <mxGeometry x="1330" y="-584" width="140" height="80" as="geometry" />
        </mxCell>
        <mxCell id="7D1d1UClvQg2_21mU1wl-35" style="edgeStyle=none;shape=connector;rounded=0;orthogonalLoop=1;jettySize=auto;html=1;labelBackgroundColor=default;strokeColor=default;fontFamily=Helvetica;fontSize=11;fontColor=#000000;endArrow=classic;" parent="1" source="7D1d1UClvQg2_21mU1wl-30" target="7D1d1UClvQg2_21mU1wl-64" edge="1">
          <mxGeometry relative="1" as="geometry">
            <mxPoint x="1910" y="-380" as="targetPoint" />
          </mxGeometry>
        </mxCell>
        <mxCell id="7D1d1UClvQg2_21mU1wl-30" value="GUID" style="ellipse;whiteSpace=wrap;html=1;aspect=fixed;fontColor=#000000;" parent="1" vertex="1">
          <mxGeometry x="1870" y="-500" width="80" height="80" as="geometry" />
        </mxCell>
        <mxCell id="7D1d1UClvQg2_21mU1wl-43" style="edgeStyle=none;shape=connector;rounded=0;orthogonalLoop=1;jettySize=auto;html=1;labelBackgroundColor=default;strokeColor=default;fontFamily=Helvetica;fontSize=11;fontColor=#000000;endArrow=classic;" parent="1" source="7D1d1UClvQg2_21mU1wl-33" target="7D1d1UClvQg2_21mU1wl-42" edge="1">
          <mxGeometry relative="1" as="geometry" />
        </mxCell>
        <mxCell id="7D1d1UClvQg2_21mU1wl-33" value="Importer" style="ellipse;whiteSpace=wrap;html=1;aspect=fixed;fontColor=#000000;" parent="1" vertex="1">
          <mxGeometry x="1740" y="-140" width="80" height="80" as="geometry" />
        </mxCell>
        <mxCell id="7D1d1UClvQg2_21mU1wl-37" value="" style="edgeStyle=none;shape=connector;rounded=0;orthogonalLoop=1;jettySize=auto;html=1;labelBackgroundColor=default;strokeColor=default;fontFamily=Helvetica;fontSize=11;fontColor=#000000;endArrow=classic;" parent="1" source="7D1d1UClvQg2_21mU1wl-64" target="7D1d1UClvQg2_21mU1wl-50" edge="1">
          <mxGeometry relative="1" as="geometry">
            <mxPoint x="1853.0386570155283" y="-269.31332643966334" as="sourcePoint" />
            <mxPoint x="1802.608695652174" y="-227.391304347826" as="targetPoint" />
            <Array as="points">
              <mxPoint x="1840" y="-260" />
            </Array>
          </mxGeometry>
        </mxCell>
        <mxCell id="7D1d1UClvQg2_21mU1wl-45" style="edgeStyle=none;shape=connector;rounded=0;orthogonalLoop=1;jettySize=auto;html=1;labelBackgroundColor=default;strokeColor=default;fontFamily=Helvetica;fontSize=11;fontColor=#000000;endArrow=classic;" parent="1" source="7D1d1UClvQg2_21mU1wl-42" target="ukPV0_dSm2DLfxHPNTDD-1" edge="1">
          <mxGeometry relative="1" as="geometry" />
        </mxCell>
        <mxCell id="7D1d1UClvQg2_21mU1wl-42" value="&lt;span style=&quot;font-size: 11px;&quot;&gt;InstantiateNoAwake（）&lt;/span&gt;" style="rhombus;whiteSpace=wrap;html=1;fontFamily=Helvetica;fontSize=11;fontColor=#000000;" parent="1" vertex="1">
          <mxGeometry x="1635" y="-10" width="290" height="80" as="geometry" />
        </mxCell>
        <mxCell id="7D1d1UClvQg2_21mU1wl-47" style="edgeStyle=none;shape=connector;rounded=0;orthogonalLoop=1;jettySize=auto;html=1;labelBackgroundColor=default;strokeColor=default;fontFamily=Helvetica;fontSize=11;fontColor=#000000;endArrow=classic;" parent="1" source="7D1d1UClvQg2_21mU1wl-44" target="7D1d1UClvQg2_21mU1wl-46" edge="1">
          <mxGeometry relative="1" as="geometry" />
        </mxCell>
        <mxCell id="7D1d1UClvQg2_21mU1wl-53" value="" style="edgeStyle=none;shape=connector;rounded=0;orthogonalLoop=1;jettySize=auto;html=1;labelBackgroundColor=default;strokeColor=default;fontFamily=Helvetica;fontSize=11;fontColor=#000000;endArrow=classic;" parent="1" source="7D1d1UClvQg2_21mU1wl-44" target="7D1d1UClvQg2_21mU1wl-52" edge="1">
          <mxGeometry relative="1" as="geometry" />
        </mxCell>
        <mxCell id="7D1d1UClvQg2_21mU1wl-44" value="Object&lt;br&gt;未实例化" style="ellipse;whiteSpace=wrap;html=1;aspect=fixed;fontFamily=Helvetica;fontSize=11;fontColor=#000000;" parent="1" vertex="1">
          <mxGeometry x="1740" y="460" width="80" height="80" as="geometry" />
        </mxCell>
        <mxCell id="7D1d1UClvQg2_21mU1wl-49" style="edgeStyle=none;shape=connector;rounded=0;orthogonalLoop=1;jettySize=auto;html=1;labelBackgroundColor=default;strokeColor=default;fontFamily=Helvetica;fontSize=11;fontColor=#000000;endArrow=classic;" parent="1" source="7D1d1UClvQg2_21mU1wl-46" target="7D1d1UClvQg2_21mU1wl-59" edge="1">
          <mxGeometry relative="1" as="geometry" />
        </mxCell>
        <mxCell id="7D1d1UClvQg2_21mU1wl-46" value="&lt;span style=&quot;font-size: 11px;&quot;&gt;Instantiate（）&lt;/span&gt;" style="rhombus;whiteSpace=wrap;html=1;fontFamily=Helvetica;fontSize=11;fontColor=#000000;" parent="1" vertex="1">
          <mxGeometry x="1725" y="610" width="110" height="80" as="geometry" />
        </mxCell>
        <mxCell id="7D1d1UClvQg2_21mU1wl-48" value="Object" style="ellipse;whiteSpace=wrap;html=1;aspect=fixed;fontFamily=Helvetica;fontSize=11;fontColor=#000000;" parent="1" vertex="1">
          <mxGeometry x="1740" y="870" width="80" height="80" as="geometry" />
        </mxCell>
        <mxCell id="7D1d1UClvQg2_21mU1wl-51" style="edgeStyle=none;shape=connector;rounded=0;orthogonalLoop=1;jettySize=auto;html=1;labelBackgroundColor=default;strokeColor=default;fontFamily=Helvetica;fontSize=11;fontColor=#000000;endArrow=classic;" parent="1" source="7D1d1UClvQg2_21mU1wl-50" target="7D1d1UClvQg2_21mU1wl-33" edge="1">
          <mxGeometry relative="1" as="geometry" />
        </mxCell>
        <mxCell id="7D1d1UClvQg2_21mU1wl-50" value="iostream" style="ellipse;whiteSpace=wrap;html=1;aspect=fixed;fontFamily=Helvetica;fontSize=11;fontColor=#000000;" parent="1" vertex="1">
          <mxGeometry x="1740" y="-250" width="80" height="80" as="geometry" />
        </mxCell>
        <mxCell id="7D1d1UClvQg2_21mU1wl-55" style="edgeStyle=none;shape=connector;rounded=0;orthogonalLoop=1;jettySize=auto;html=1;labelBackgroundColor=default;strokeColor=default;fontFamily=Helvetica;fontSize=11;fontColor=#000000;endArrow=classic;" parent="1" source="7D1d1UClvQg2_21mU1wl-52" target="7D1d1UClvQg2_21mU1wl-54" edge="1">
          <mxGeometry relative="1" as="geometry" />
        </mxCell>
        <mxCell id="7D1d1UClvQg2_21mU1wl-52" value="Exporter" style="ellipse;whiteSpace=wrap;html=1;aspect=fixed;fontFamily=Helvetica;fontSize=11;fontColor=#000000;" parent="1" vertex="1">
          <mxGeometry x="1960" y="460" width="80" height="80" as="geometry" />
        </mxCell>
        <mxCell id="7D1d1UClvQg2_21mU1wl-56" style="edgeStyle=orthogonalEdgeStyle;shape=connector;rounded=0;orthogonalLoop=1;jettySize=auto;html=1;labelBackgroundColor=default;strokeColor=default;fontFamily=Helvetica;fontSize=11;fontColor=#000000;endArrow=classic;" parent="1" source="7D1d1UClvQg2_21mU1wl-54" target="7D1d1UClvQg2_21mU1wl-64" edge="1">
          <mxGeometry relative="1" as="geometry">
            <mxPoint x="1980" y="-310" as="targetPoint" />
            <Array as="points">
              <mxPoint x="2000" y="-310" />
            </Array>
          </mxGeometry>
        </mxCell>
        <mxCell id="7D1d1UClvQg2_21mU1wl-54" value="iostream" style="ellipse;whiteSpace=wrap;html=1;aspect=fixed;fontFamily=Helvetica;fontSize=11;fontColor=#000000;" parent="1" vertex="1">
          <mxGeometry x="1960" y="-140" width="80" height="80" as="geometry" />
        </mxCell>
        <mxCell id="7D1d1UClvQg2_21mU1wl-58" style="shape=connector;rounded=0;orthogonalLoop=1;jettySize=auto;html=1;labelBackgroundColor=default;strokeColor=default;fontFamily=Helvetica;fontSize=11;fontColor=#000000;endArrow=classic;" parent="1" source="7D1d1UClvQg2_21mU1wl-57" target="7D1d1UClvQg2_21mU1wl-44" edge="1">
          <mxGeometry relative="1" as="geometry" />
        </mxCell>
        <mxCell id="7D1d1UClvQg2_21mU1wl-57" value="Import（）&lt;br&gt;导入基本属性" style="rhombus;whiteSpace=wrap;html=1;fontFamily=Helvetica;fontSize=11;fontColor=#000000;" parent="1" vertex="1">
          <mxGeometry x="1710" y="280" width="140" height="80" as="geometry" />
        </mxCell>
        <mxCell id="7D1d1UClvQg2_21mU1wl-60" style="edgeStyle=none;shape=connector;rounded=0;orthogonalLoop=1;jettySize=auto;html=1;labelBackgroundColor=default;strokeColor=default;fontFamily=Helvetica;fontSize=11;fontColor=#000000;endArrow=classic;" parent="1" source="7D1d1UClvQg2_21mU1wl-59" target="7D1d1UClvQg2_21mU1wl-48" edge="1">
          <mxGeometry relative="1" as="geometry" />
        </mxCell>
        <mxCell id="7D1d1UClvQg2_21mU1wl-59" value="Awake（）&lt;br&gt;创建运行时属性" style="rhombus;whiteSpace=wrap;html=1;fontFamily=Helvetica;fontSize=11;fontColor=#000000;" parent="1" vertex="1">
          <mxGeometry x="1705" y="740" width="150" height="80" as="geometry" />
        </mxCell>
        <mxCell id="7D1d1UClvQg2_21mU1wl-63" style="edgeStyle=none;shape=connector;rounded=0;orthogonalLoop=1;jettySize=auto;html=1;labelBackgroundColor=default;strokeColor=default;fontFamily=Helvetica;fontSize=11;fontColor=#000000;endArrow=classic;" parent="1" source="7D1d1UClvQg2_21mU1wl-61" target="7D1d1UClvQg2_21mU1wl-50" edge="1">
          <mxGeometry relative="1" as="geometry" />
        </mxCell>
        <mxCell id="7D1d1UClvQg2_21mU1wl-61" value="Exporter" style="ellipse;whiteSpace=wrap;html=1;aspect=fixed;fontFamily=Helvetica;fontSize=11;fontColor=#000000;" parent="1" vertex="1">
          <mxGeometry x="1625" y="-360" width="80" height="80" as="geometry" />
        </mxCell>
        <mxCell id="7D1d1UClvQg2_21mU1wl-64" value="&lt;span style=&quot;font-family: &amp;quot;PingFang SC&amp;quot;, &amp;quot;Segoe UI&amp;quot;, Arial, &amp;quot;Microsoft YaHei&amp;quot;, 微软雅黑, 宋体, &amp;quot;Malgun Gothic&amp;quot;, sans-serif; font-size: 14px; text-align: left; background-color: rgb(252, 253, 254);&quot;&gt;Persistence&lt;br&gt;&lt;/span&gt;&lt;span style=&quot;background-color: rgb(255, 255, 255);&quot;&gt;持久化创建方式&lt;/span&gt;" style="ellipse;whiteSpace=wrap;html=1;fontFamily=Helvetica;fontSize=11;fontColor=#000000;" parent="1" vertex="1">
          <mxGeometry x="1840" y="-360" width="120" height="80" as="geometry" />
        </mxCell>
        <mxCell id="ukPV0_dSm2DLfxHPNTDD-2" style="edgeStyle=orthogonalEdgeStyle;rounded=0;orthogonalLoop=1;jettySize=auto;html=1;" edge="1" parent="1" source="ukPV0_dSm2DLfxHPNTDD-1" target="7D1d1UClvQg2_21mU1wl-57">
          <mxGeometry relative="1" as="geometry" />
        </mxCell>
        <mxCell id="ukPV0_dSm2DLfxHPNTDD-1" value="Create（）" style="rhombus;whiteSpace=wrap;html=1;" vertex="1" parent="1">
          <mxGeometry x="1740" y="130" width="80" height="80" as="geometry" />
        </mxCell>
        <mxCell id="ukPV0_dSm2DLfxHPNTDD-4" style="rounded=0;orthogonalLoop=1;jettySize=auto;html=1;" edge="1" parent="1" source="ukPV0_dSm2DLfxHPNTDD-3" target="7D1d1UClvQg2_21mU1wl-61">
          <mxGeometry relative="1" as="geometry" />
        </mxCell>
        <mxCell id="ukPV0_dSm2DLfxHPNTDD-3" value="new Object()" style="rhombus;whiteSpace=wrap;html=1;" vertex="1" parent="1">
          <mxGeometry x="1435" y="-470" width="190" height="80" as="geometry" />
        </mxCell>
      </root>
    </mxGraphModel>
  </diagram>
</mxfile>
